<svg xmlns="http://www.w3.org/2000/svg" xmlns:xlink="http://www.w3.org/1999/xlink" version="1.1" x="0px" y="0px" viewBox="0 0 100 125" enable-background="new 0 0 100 100" xml:space="preserve"><path d="M69.412,26.248V15.616c0-5.863-4.769-10.632-10.632-10.632S48.148,9.754,48.148,15.616v10.632H69.412z M51.648,16.44  c2.662-0.259,5.371-1.85,7.213-3.174c1.664,2.202,3.918,4.251,6.586,5.012c-1.06,2.646-3.646,4.522-6.667,4.522  C55.098,22.8,52.058,20.014,51.648,16.44z M64.161,73.054v20.813h-3.448V73.054h-3.448v20.813h-3.448V73.054h-7.942l3.895-22.11  l0.006-11.804c0-2.724,1.206-5.167,3.105-6.841c1.095,2.23,3.383,3.773,6.03,3.773c2.647,0,4.935-1.543,6.03-3.773  c1.898,1.675,3.104,4.117,3.104,6.841v11.601l3.901,22.313H64.161z M55.87,30.54c0.953-0.338,1.973-0.531,3.04-0.531  c1.067,0,2.088,0.193,3.04,0.531c-0.477,1.217-1.657,2.084-3.04,2.084C57.527,32.624,56.347,31.757,55.87,30.54z M38.089,31.929  l1.241-1.435c0.287-0.41,0.431-0.874,0.462-1.341c0.654-0.174,1.256-0.555,1.674-1.154c0.943-1.35,0.612-3.209-0.738-4.151  c-1.35-0.942-3.209-0.612-4.151,0.738c-0.423,0.605-0.574,1.311-0.506,1.992c-0.441,0.198-0.844,0.509-1.147,0.949l-3.604,6.515  l3.08,2.15l1.964-2.271v59.083h-6.393v1.724h14.51v-1.724h-6.393V31.929z M34.115,33.891l-0.534-0.373l2.805-5.08  c0.282-0.405,0.89-0.516,1.3-0.231c0.422,0.295,0.526,0.878,0.286,1.23l-1.449,1.673h-0.158v0.183L34.115,33.891z"/><text x="0" y="115" fill="#000000" font-size="5px" font-weight="bold" font-family="'Helvetica Neue', Helvetica, Arial-Unicode, Arial, Sans-serif">Created by Piotrek Chuchla</text><text x="0" y="120" fill="#000000" font-size="5px" font-weight="bold" font-family="'Helvetica Neue', Helvetica, Arial-Unicode, Arial, Sans-serif">from the Noun Project</text></svg>